<?xml version="1.0" encoding="UTF-8" standalone="no"?>
<svg
   width="750"
   height="850.875"
   viewBox="-702 0 750 850.875"
   version="1.2"
   id="svg12"
   sodipodi:docname="Notebook 3 - page 1.svg"
   inkscape:version="1.2.2 (b0a8486541, 2022-12-01)"
   xmlns:inkscape="http://www.inkscape.org/namespaces/inkscape"
   xmlns:sodipodi="http://sodipodi.sourceforge.net/DTD/sodipodi-0.dtd"
   xmlns="http://www.w3.org/2000/svg"
   xmlns:svg="http://www.w3.org/2000/svg"
   xmlns:rdf="http://www.w3.org/1999/02/22-rdf-syntax-ns#"
   xmlns:cc="http://creativecommons.org/ns#"
   xmlns:dc="http://purl.org/dc/elements/1.1/"><defs
   id="defs16">
  <marker
     style="overflow:visible"
     id="marker1060"
     refX="0"
     refY="0"
     orient="auto-start-reverse"
     inkscape:stockid="Arrow3"
     markerWidth="4.2071066"
     markerHeight="6.9999995"
     viewBox="0 0 4.2071068 7"
     inkscape:isstock="true"
     inkscape:collect="always"
     preserveAspectRatio="xMidYMid">
    <path
       style="fill:none;stroke:context-stroke;stroke-width:1;stroke-linecap:round"
       d="M 3,-3 0,0 3,3"
       id="path1058"
       transform="rotate(180,0.125,0)"
       sodipodi:nodetypes="ccc" />
  </marker>
  <marker
     style="overflow:visible"
     id="Arrow3"
     refX="0"
     refY="0"
     orient="auto-start-reverse"
     inkscape:stockid="Arrow3"
     markerWidth="4.2071066"
     markerHeight="7"
     viewBox="0 0 4.2071068 7"
     inkscape:isstock="true"
     inkscape:collect="always"
     preserveAspectRatio="xMidYMid">
    <path
       style="fill:none;stroke:context-stroke;stroke-width:1;stroke-linecap:round"
       d="M 3,-3 0,0 3,3"
       id="arrow3"
       transform="rotate(180,0.125,0)"
       sodipodi:nodetypes="ccc" />
  </marker>
</defs>
<sodipodi:namedview
   id="namedview14"
   pagecolor="#ffffff"
   bordercolor="#000000"
   borderopacity="0.25"
   inkscape:showpageshadow="2"
   inkscape:pageopacity="0.0"
   inkscape:pagecheckerboard="0"
   inkscape:deskcolor="#d1d1d1"
   showgrid="false"
   inkscape:zoom="0.83972969"
   inkscape:cx="361.42583"
   inkscape:cy="447.16771"
   inkscape:window-width="1920"
   inkscape:window-height="1134"
   inkscape:window-x="0"
   inkscape:window-y="0"
   inkscape:window-maximized="1"
   inkscape:current-layer="svg12" />
<title
   id="title2">Notebook 3</title>
\n<path
   fill="#000000"
   fill-rule="evenodd"
   d="m -128.5,848.755 -25,2.12 -27,-3.25 -4,-0.87 -13,-3.88 -17,-7 -10.5,-5.5 -6,-4 -17.5,-13.5 -2.5,-1.5 -8.5,-8.5 -2,-3 -6.5,-8.5 -13.5,-28.5 -2.5,-4.5 -6.5,-8.5 -2,-3 -19.5,-24.5 -1.5,-2.5 -8.5,-8.5 -5.5,-3.5 -11,-5 -6,-1.87 -25.5,-2.63 -1,1 -1,-1 -17.5,-0.12 -2,-0.38 -1.5,-0.5 -1,1 -1,-1 -1,1 -23.5,1.5 -13,3.13 -17,5.75 -3.5,0.62 -1,-1 -1,1 -10.5,0.75 -10,3 -1.5,0.25 -1,-1 -1,1 h -1 l -1,-1 -1,1 -1.5,-0.25 -17,-0.25 -3,-0.75 -29.5,-2.75 -1,-1 -1,1 -1,-1 -3.5,-0.5 -7,-2.12 -20,-7.88 -19.5,-10.5 -15,-10 -12,-10 -10.5,-10.5 -21,-27 -19.5,-29.5 -2.5,-4.5 -9.5,-14.5 -19,-41 -4.875,-15 -2.125,-11 v -42 l 3.125,-17 11,-33 6.875,-14 10,-18 2,-3 18,-26 15.5,-18.5 5.5,-5.5 3,-2 17,-13 15.5,-9.375 2.5,-0.625 2,-2 2,-1 18.5,-10.5 10,-4 22,-9 16,-4 5,-0.75 32,0.75 39,9 7,2 5,2 15,8 1.5,0.5 7.5,7.5 3.5,5.5 6,13 5.75,27 v 21 l -0.75,4 -10.125,30 -9.875,25 -2,8 v 6 l 3,11 5.5,13.5 11.5,11.5 1.5,0.5 9,4 16,3.75 27,0.125 12,-4.875 13,-6.875 2.5,-0.625 9,-9 40,-35 19,-15 38.5,-25.5 31,-14 49,-14 14,-2 21,1 6,1 13,4 12,5 19,11 20.5,14.5 13,11 13.5,13.5 1.5,2.5 5.5,7.5 13.375,24.5 6.125,16 17,81 2,78 -2,14 -7,25 -9,23 -12.5,22.5 -38,46 -31.5,31.5 -39,31 -8.5,5.5 -22,10 -7,1.88 m 1,-5 7,-2 5,-2 19.5,-10.38 10.5,-7.5 35.5,-29.5 21.5,-21.5 42.5,-50.5 6,-10 7.875,-16 10.125,-28 4.875,-21 -0.875,-82 -18.125,-86 -4,-10 -11.875,-23 -2,-3 -6,-8 -1.5,-2.5 -12.5,-12.5 -12.5,-10.5 -23.5,-16.5 -19.5,-10.5 -10,-4 -11,-3 -17,-2.25 h -4 l -16,2.25 -41,11 -24,9.125 -17,8.875 -35.5,23.5 -19,15 -50.5,44.5 -12,6 -1.5,0.5 -2,2 -12.5,4.25 -4.5,0.75 -1,-1 -1,1 -23.5,-0.75 -15,-3.75 -11,-5 -1.5,-0.5 -11.5,-11.5 -0.5,-1.5 -3.875,-8 -4.125,-12 -0.875,-4 v -10 l 1.875,-8 8.875,-22 8.125,-22 2.875,-10 0.875,-5 v -17 l -1.75,-12 -4.125,-16 -2.875,-7 -5.5,-9.5 -7.5,-7.5 -1.5,-0.5 -9,-5 -4,-1.875 -12,-4.125 -30,-7 -18,-2.875 -20,0.125 -5,0.75 -16,4 -18,6.875 -2.5,0.625 -2,2 -5.5,1.625 -4,1.875 -7,3 -29.5,17.5 -19,14 -14.5,14.5 -9,11 -22,32 -14.5,27.5 -5,12 -8,27 -2,13 v 38 l 3,15 14,35 3,7 20.5,34.5 9,13 3,5 18,24 2,3 23.5,23.5 2,1 16,11 13.5,7.5 12,5.88 17,6.12 2.5,0.5 1,1 1,-1 13,1 2,2 7.25,-0.12 0.5,-1.63 1.75,-0.5 h 6 l 2,0.75 2,1 2,0.75 13.5,-0.25 1,-1 1,1 11.5,0.25 3,-0.75 3.5,-0.5 2,-2 14.5,-0.75 4,-0.87 2,-0.75 6.5,-1.63 2,-2 3,-1 2,-2 h 17 l 3,-3 h 3 l 1,-1 1.5,1.5 v 1 l 0.5,0.5 1,-1 10,-2 3,3 1,-1 29,1 1,1 1,-1 12.5,1.63 8,2 13,5.87 3,2 4,3 2.5,1.5 1.5,1.5 28,36 1.25,2.25 1.25,0.25 1.5,1.5 6.5,11.5 12,26 8,10 2.5,3.5 3.5,3.5 3,2 24,18 10.5,5.5 14,5.88 17,5.12 4,0.75 19,2 31,-1.87"
   id="path4"
   style="stroke-width:1.3;stroke-dasharray:none" />
<g
   id="g10"
   transform="translate(-319.5,-358.625)">
  <path
     fill="#000000"
     fill-rule="evenodd"
     d="m 131,640.375 -13,0.125 -13,-2 -9,-3.125 -4,-1.75 -2.5,-0.625 -2,-2 -1.5,-0.5 -3,-2 -4,-3 L 76.5,624 67,614.5 57.5,596 50,585.5 45.5,580 43,576.5 37.5,571 36,570.5 30,567.625 27,566.75 -2.5,565 l -1,1 -1,-1 -1,1 h -5 l -1,1 -1,-1 -1,1 -2.5,0.5 -9,2.75 -12.5,1.75 -1,1 -1,-1 -1,1 -1,-1 h -3 l -1,1 -1,-1 h -2 l -1,1 -1,-1 -16.5,-1.625 -4,-0.875 -9,-3.125 -10,-4.875 -8.5,-5.5 -2,-1 -14.5,-14.5 -1.5,-2.5 -6,-8 -8,-12 -2.5,-4.5 -5.5,-8.5 -8,-18 -2.875,-9 -1,-7 v -14 l 1.875,-12 3,-10 4,-10 7.5,-13.5 9,-13 1,-2 13.5,-13.5 2.5,-1.5 6.5,-4.5 14.5,-8.5 20,-8 8,-1.75 14,-0.125 6,0.875 17,4 5,1.875 2.5,0.625 2,2 3,1 5.5,5.5 0.5,1.5 2.875,6 2.125,8 0.875,5 -0.125,11 -0.75,4 -10,28 0.125,6 0.875,3 2,5 1,2 0.5,1.5 4.5,4.5 1.5,0.5 4,1.875 8,2 10,-0.125 2,0.25 h 2 l 7,-3 5,-3 11,-9 3.5,-2.5 1.5,-1.5 0.25,-1.25 L 76.5,428 94,416.5 l 18,-8 22,-6 7,-1 h 6 l 11,2 5,2 10.5,5.5 9.5,6.5 4.5,3.5 3,2 9.5,9.5 3.5,5.5 5.875,11 3.125,8 8,38 0.875,43 -1,6 -3.875,13 -4,10 -5,9 -2.5,3.5 -18,22 -14.5,14.5 -3.5,2.5 -15,12 -8,5 -7,3 -8,1.875 m -2,-2 6,-1 3,-0.875 7,-3 12,-8 13.5,-11.5 5,-4 7.5,-7.5 20.5,-24.5 2.5,-3.5 5.5,-10.5 4,-10 3,-11 2,-15 -4,-45 -7,-28 -6,-13 -3.5,-5.5 -1,-2 -11.5,-11.5 -2.5,-1.5 -4,-3 -12,-8 -6,-2.875 -9,-3 -7,-1.125 h -6 l -19,4 -24,9 -19.5,12.5 -37.5,31.5 -6,3 -7,3 H 26 L 24,466.25 14,466.375 6,464.5 3,463.375 -2.5,460 -5,457.5 -7.375,453 l -2,-5 -1.125,-4 v -6 l 1,-4 9,-24 0.75,-4 0.125,-11 -0.875,-5 -2.125,-8 -1.875,-4 -0.5,-1.5 -6.5,-6.5 -1.5,-0.5 -6,-2.875 -26,-6 h -13 l -5,0.875 -4,1 -17,7 -18.5,10.5 -4,3 -3,2 -11.5,11.5 -1.5,2.5 -11,16 -7,13 -4,10 -1.875,7 -2,12 v 14 l 0.875,6 1,4 10,24 16.5,25.5 7,9 2,3 9.5,9.5 2,1 9.5,6.5 10,5 7,2.875 3.5,0.625 1,1 1,-1 4.5,0.75 2,0.625 26,-0.25 2,-0.5 3.5,-0.625 1,1 1,-1 4.5,-0.625 10,-3.875 6.75,0.25 0.5,-1.5 24.25,0.75 1,1 1,-1 7.5,1.625 5,1.75 2.5,0.625 2,2 h 1 l 6.5,6.5 2.5,3.5 4.5,5.5 7.5,10.5 9.5,18.5 7.5,7.5 3,2 4.5,3.5 3,2 1.5,0.5 2,2 2.5,0.625 4,1.75 9,3.125 13,2 10,-0.125"
     id="path8" />
</g>
<metadata
   id="metadata1207">
  <rdf:RDF>
    <cc:Work
       rdf:about="">
      <dc:title>Notebook 3</dc:title>
    </cc:Work>
  </rdf:RDF>
</metadata>
</svg>
